<svg width="18" height="18" viewBox="0 0 18 18" fill="none" xmlns="http://www.w3.org/2000/svg">
<g clip-path="url(#clip0_303_5054)">
<path fill-rule="evenodd" clip-rule="evenodd" d="M1.54159 3.04159C1.92839 2.6548 2.45299 2.4375 3 2.4375H8.25C8.56066 2.4375 8.8125 2.68934 8.8125 3C8.8125 3.31066 8.56066 3.5625 8.25 3.5625H3C2.75136 3.5625 2.5129 3.66127 2.33709 3.83709C2.16127 4.0129 2.0625 4.25136 2.0625 4.5V15C2.0625 15.2486 2.16127 15.4871 2.33709 15.6629C2.5129 15.8387 2.75136 15.9375 3 15.9375H13.5C13.7486 15.9375 13.9871 15.8387 14.1629 15.6629C14.3387 15.4871 14.4375 15.2486 14.4375 15V9.75C14.4375 9.43934 14.6893 9.1875 15 9.1875C15.3107 9.1875 15.5625 9.43934 15.5625 9.75V15C15.5625 15.547 15.3452 16.0716 14.9584 16.4584C14.5716 16.8452 14.047 17.0625 13.5 17.0625H3C2.45299 17.0625 1.92839 16.8452 1.54159 16.4584C1.1548 16.0716 0.9375 15.547 0.9375 15V4.5C0.9375 3.95299 1.1548 3.42839 1.54159 3.04159Z" fill="#F9F9F9"/>
<path fill-rule="evenodd" clip-rule="evenodd" d="M15 1.9715C14.7272 1.9715 14.4656 2.07986 14.2728 2.27273L7.25793 9.28757L6.77309 11.2269L8.71243 10.7421L15.7273 3.72724C15.9201 3.53436 16.0285 3.27276 16.0285 2.99999C16.0285 2.72721 15.9201 2.46561 15.7273 2.27273C15.5344 2.07986 15.2728 1.9715 15 1.9715ZM13.4773 1.47724C13.8811 1.07338 14.4289 0.846497 15 0.846497C15.5712 0.846497 16.1189 1.07338 16.5228 1.47724C16.9266 1.8811 17.1535 2.42885 17.1535 2.99999C17.1535 3.57113 16.9266 4.11888 16.5228 4.52273L9.39776 11.6477C9.32567 11.7198 9.23534 11.771 9.13644 11.7957L6.13644 12.5457C5.94475 12.5936 5.74198 12.5374 5.60226 12.3977C5.46255 12.258 5.40639 12.0552 5.45431 11.8636L6.20431 8.86356C6.22903 8.76466 6.28017 8.67433 6.35226 8.60224L13.4773 1.47724Z" fill="#F9F9F9"/>
</g>
<defs>
<clipPath id="clip0_303_5054">
<rect width="18" height="18" fill="white"/>
</clipPath>
</defs>
</svg>
